<svg xmlns="http://www.w3.org/2000/svg" width="128" height="128" viewBox="0 0 128 128">
  <rect width="128" height="128" fill="#0a0a0a" rx="18"/>
  <g transform="translate(32, 32)" fill="none" stroke="#c9a227" stroke-width="2" stroke-linecap="round" stroke-linejoin="round">
    <svg width="64" height="64" viewBox="0 0 24 24">
      <path d="M11.562 3.266a.5.5 0 0 1 .876 0L15.39 8.87a1 1 0 0 0 1.516.294L21.183 5.5a.5.5 0 0 1 .798.519l-2.834 10.246a1 1 0 0 1-.956.734H5.81a1 1 0 0 1-.957-.734L2.02 6.02a.5.5 0 0 1 .798-.519l4.276 3.664a1 1 0 0 0 1.516-.294z"/>
      <path d="M5.81 17 7 21h10l1.19-4"/>
    </svg>
  </g>
</svg>
